HIERARCHY
ROOT Hips
{
	OFFSET -3.958830 18.904000 13.208200
	CHANNELS 6 Xposition Yposition Zposition Zrotation Yrotation Xrotation 
	JOINT LHipJoint
	{
		OFFSET 0.000000 0.000000 0.000000
		CHANNELS 3 Zrotation Yrotation Xrotation
		JOINT LeftUpLeg
		{
			OFFSET 1.800000 -1.400000 0.085000
			CHANNELS 3 Zrotation Yrotation Xrotation
			JOINT LeftLeg
			{
				OFFSET 2.215000 -6.000000 0.000000
				CHANNELS 3 Zrotation Yrotation Xrotation
				JOINT LeftFoot
				{
					OFFSET 2.500000 -6.900000 0.000000
					CHANNELS 3 Zrotation Yrotation Xrotation
					JOINT LeftToeBase
					{
						OFFSET 0.200000 -0.500000 1.950000
						CHANNELS 3 Zrotation Yrotation Xrotation
						End Site
						{
							OFFSET 0.000000 0.000000 0.000000
						}
					}
				}
			}
		}
	}
	JOINT RHipJoint
	{
		OFFSET 0.000000 0.000000 0.000000
		CHANNELS 3 Zrotation Yrotation Xrotation
		JOINT RightUpLeg
		{
			OFFSET -1.800000 -1.400000 0.085000
			CHANNELS 3 Zrotation Yrotation Xrotation
			JOINT RightLeg
			{
				OFFSET -2.215000 -6.000000 0.000000
				CHANNELS 3 Zrotation Yrotation Xrotation
				JOINT RightFoot
				{
					OFFSET -2.500000 -6.900000 0.000000
					CHANNELS 3 Zrotation Yrotation Xrotation
					JOINT RightToeBase
					{
						OFFSET -0.200000 -0.500000 1.950000
						CHANNELS 3 Zrotation Yrotation Xrotation
						End Site
						{
							OFFSET 0.000000 0.000000 0.000000
						}
					}
				}
			}
		}
	}
	JOINT LowerBack
	{
		OFFSET 0.000000 0.000000 0.000000
		CHANNELS 3 Zrotation Yrotation Xrotation
		JOINT Spine
		{
			OFFSET -0.087000 1.940000 -0.288900
			CHANNELS 3 Zrotation Yrotation Xrotation
			JOINT Spine1
			{
				OFFSET 0.000000 1.950000 0.060000
				CHANNELS 3 Zrotation Yrotation Xrotation
				JOINT Neck
				{
					OFFSET 0.000000 0.000000 0.000000
					CHANNELS 3 Zrotation Yrotation Xrotation
					JOINT Neck1
					{
						OFFSET 0.000000 1.600000 0.340000
						CHANNELS 3 Zrotation Yrotation Xrotation
						JOINT Head
						{
							OFFSET 0.000000 1.667000 -0.240000
							CHANNELS 3 Zrotation Yrotation Xrotation
							End Site
							{
								OFFSET 0.000000 0.000000 0.000000
							}
						}
					}
				}
				JOINT LeftShoulder
				{
					OFFSET 0.000000 0.000000 0.000000
					CHANNELS 3 Zrotation Yrotation Xrotation
					JOINT LeftArm
					{
						OFFSET 2.700000 1.550000 -0.730000
						CHANNELS 3 Zrotation Yrotation Xrotation
						JOINT LeftForeArm
						{
							OFFSET 5.450000 0.000000 0.000000
							CHANNELS 3 Zrotation Yrotation Xrotation
							JOINT LeftHand
							{
								OFFSET 3.450000 0.000000 0.000000
								CHANNELS 3 Zrotation Yrotation Xrotation
								JOINT LeftHandIndex1
								{
									OFFSET 0.750000 0.000000 0.000000
									CHANNELS 3 Zrotation Yrotation Xrotation
									End Site
									{
										OFFSET 0.000000 0.000000 0.000000
									}
								}
							}
						}
					}
				}
				JOINT RightShoulder
				{
					OFFSET 0.000000 0.000000 0.000000
					CHANNELS 3 Zrotation Yrotation Xrotation
					JOINT RightArm
					{
						OFFSET -2.700000 1.550000 -0.730000
						CHANNELS 3 Zrotation Yrotation Xrotation
						JOINT RightForeArm
						{
							OFFSET -5.450000 0.000000 0.000000
							CHANNELS 3 Zrotation Yrotation Xrotation
							JOINT RightHand
							{
								OFFSET -3.450000 0.000000 0.000000
								CHANNELS 3 Zrotation Yrotation Xrotation
								JOINT RightHandIndex1
								{
									OFFSET -0.750000 0.000000 0.000000
									CHANNELS 3 Zrotation Yrotation Xrotation
									End Site
									{
										OFFSET 0.000000 0.000000 0.000000
									}
								}
							}
						}
					}
				}
			}
		}
	}
}
MOTION
Frames: 6
Frame Time: 0.016667
-0.723620 16.536340 -13.416660 -2.337395 -12.934068 -2.992339 -14.961436 11.712357 4.604132 -6.974164 -6.906424 -35.216263 -10.906047 13.969262 46.116200 0.333636 8.878601 1.323829 0.570060 0.321750 0.408440 18.604353 -10.188429 3.847341 12.567875 -2.446219 7.967409 12.886999 -8.028606 15.035514 -1.280855 -5.108361 2.531388 0.138690 0.026850 0.300180 -4.266893 -0.840657 -9.108081 9.559636 2.270238 16.436960 -11.270688 8.240147 9.138868 3.634680 -10.124118 -22.139938 -25.939621 15.451729 47.035932 5.434070 4.878520 -25.294900 -34.763356 -27.297036 9.149592 -39.933544 -1.702197 -0.628700 7.343091 -2.885282 -0.993974 -3.418941 2.718210 1.032350 -0.291510 0.475150 0.193460 29.589626 39.197065 14.486966 42.548048 21.105786 -0.200277 -6.582401 3.279700 0.374043 2.387848 -0.998871 -0.158020 0.392590 0.000290 -0.157580 
-0.759030 16.543760 -13.382510 -2.698290 -13.499032 -2.963466 -14.931656 11.765916 4.542448 -6.578573 -6.476735 -35.002579 -10.883092 13.890408 45.485747 0.296940 8.772847 1.377976 0.567510 0.315760 0.415020 18.619202 -10.230072 3.866439 12.700638 -2.099767 7.616742 12.945965 -8.179508 16.399596 -1.287374 -5.173281 2.524451 0.143780 0.042580 0.275160 -4.324987 -0.814712 -9.091313 10.224446 2.287181 16.381187 -11.716922 8.543273 9.788665 3.914109 -10.103485 -22.710147 -25.987954 15.228067 46.786945 5.286130 4.645730 -25.143250 -34.679623 -28.135128 9.329305 -39.914369 -2.023941 -0.668795 6.985267 -3.508471 -1.035971 -3.402026 2.688243 1.035580 -0.289040 0.464540 0.204170 29.051041 40.145707 14.890437 42.407524 21.653299 -0.205284 -6.667637 3.669881 0.320036 2.371828 -0.995942 -0.182410 0.427370 -0.007910 -0.160370 
-0.867570 16.586290 -13.299070 -3.253219 -14.993130 -3.062092 -14.881122 11.983657 4.356869 -5.719869 -5.351250 -33.705758 -10.772332 13.424496 43.011272 0.161994 8.283831 1.524351 0.561400 0.297810 0.428720 18.611112 -10.353890 3.914004 12.084162 -0.795663 6.804059 14.246771 -8.911427 20.035333 -1.347882 -5.459328 2.416958 0.132760 0.027480 0.270120 -4.355792 -0.818440 -9.071929 10.622901 2.689888 16.750857 -11.947654 9.300147 9.600916 3.897805 -10.064824 -23.659776 -26.665126 15.521582 47.679331 6.041420 4.546360 -26.163280 -35.374736 -28.864483 9.291594 -39.307440 -2.491374 -0.408181 5.229295 -3.937783 -1.038311 -3.374164 2.646675 1.073310 -0.315960 0.481460 0.183960 29.989490 40.724604 15.639228 42.266117 21.909098 -0.725943 -7.153923 4.991443 0.161377 2.342159 -0.972125 -0.192770 0.440340 0.006910 -0.173380 
-1.013440 16.601630 -13.231700 -3.362867 -17.465579 -2.834034 -14.892577 12.117094 4.231042 -4.777647 -4.389240 -33.767436 -10.821567 13.276928 41.155247 0.060996 7.963319 1.613882 0.597300 0.332840 0.453420 18.569277 -10.413118 3.899906 11.061361 0.835987 5.851257 15.446160 -9.711915 24.151913 -1.422255 -5.879576 2.270679 0.162770 0.012910 0.277060 -4.263267 -0.869231 -9.041669 9.785452 3.554213 16.672805 -12.072883 10.462904 11.616869 4.307543 -10.024184 -24.935655 -26.475254 15.247202 45.462504 5.953570 4.781980 -26.908630 -33.471606 -31.147709 9.533939 -40.032710 -4.652698 -0.455968 5.214205 -5.436897 -1.165897 -3.350032 2.694276 1.072940 -0.317540 0.484410 0.191340 27.818813 43.274544 16.661473 41.820597 24.341887 -0.774690 -7.803662 6.050103 -0.062983 2.301480 -1.035294 -0.189000 0.430510 -0.010510 -0.181750 
-1.123800 16.611630 -13.155260 -4.705615 -19.098460 -2.507784 -14.862270 12.294333 3.969657 -2.774293 -3.286797 -32.369260 -10.842402 12.831673 38.533212 -0.087207 7.558965 1.767974 0.606740 0.331160 0.454730 18.586037 -10.315614 3.984752 10.499083 4.403734 2.500176 19.240185 -11.736773 31.255466 -1.592527 -6.772149 1.978558 0.190840 0.051700 0.254130 -4.343322 -1.096639 -8.982366 11.295866 3.012635 17.088573 -12.582257 10.507105 13.226895 4.788400 -10.330492 -25.989334 -27.562814 14.911074 42.447067 6.375290 4.110190 -27.161000 -32.417748 -33.041580 9.538475 -40.659437 -7.408114 -0.229442 5.623390 -6.341721 -1.294475 -3.343930 2.697549 1.073300 -0.309090 0.452760 0.207940 26.109382 45.108918 17.487001 39.460338 26.324164 -1.252672 -8.046980 7.768027 -0.370479 2.253744 -1.041296 -0.227700 0.480040 -0.006860 -0.181900 
-1.223540 16.589400 -13.086410 -6.617564 -19.270677 -2.315467 -14.857537 12.336603 3.672344 -0.111649 -2.597499 -30.616162 -10.865466 12.512327 36.799728 -0.164884 7.319334 1.850592 0.652270 0.406960 0.499250 18.626347 -9.974091 4.200315 9.269547 8.837007 -2.051078 26.545451 -15.607787 37.514979 -1.929848 -8.139604 1.543504 0.245480 0.039960 0.251270 -4.468456 -1.409376 -8.947894 13.519529 1.467784 17.737883 -13.755307 9.477432 15.073760 5.752482 -9.926419 -26.250034 -26.869580 14.342159 39.933087 4.220540 4.339850 -27.781470 -30.689100 -34.780965 9.863645 -40.377131 -11.015215 -0.186080 7.055915 -7.716945 -1.527873 -3.345983 2.718581 1.037940 -0.287270 0.461150 0.218280 22.143531 46.540687 16.941689 37.116103 28.940794 -1.565364 -8.290372 10.305453 -0.789100 2.200439 -1.063204 -0.217340 0.496800 -0.042560 -0.181140 
